<svg width="120" height="120" viewBox="0 0 120 120" fill="none" xmlns="http://www.w3.org/2000/svg">
<rect width="120" height="120" rx="9.375" fill="url(#paint0_linear_563_387)"/>
<path d="M69.9005 19.9219L83.7083 33.7575L79.7274 37.6827L65.9475 23.9027L69.9005 19.9219ZM36.3833 65.2425L54.4782 47.2312C54.1998 46.3682 54.3946 45.2825 55.1184 44.5587C56.2041 43.473 57.9858 43.473 59.0715 44.5587C60.1572 45.6722 60.1572 47.4261 59.0715 48.5117C58.3477 49.2355 57.262 49.4304 56.399 49.152L38.3877 67.2469L67.924 57.3643L77.7509 39.6592L63.9988 25.8793L46.2659 35.7062L36.3833 65.2425Z" fill="#0B472E"/>
<path d="M43.9848 91.8697V95.9755H32.8026V91.8697H36.2322V87.0636C36.0872 87.2568 35.8618 87.45 35.5559 87.6432C35.25 87.8203 34.9038 87.9894 34.5174 88.1504C34.1471 88.3114 33.7687 88.4402 33.3823 88.5368C32.9958 88.6334 32.6497 88.6817 32.3438 88.6817V84.4793C32.5692 84.4793 32.8751 84.3988 33.2615 84.2378C33.664 84.0768 34.0746 83.8755 34.4932 83.634C34.9119 83.3764 35.2822 83.1188 35.6042 82.8612C35.9262 82.6036 36.1355 82.3781 36.2322 82.1849H40.9176V91.8697H43.9848Z" fill="#0B472E"/>
<path d="M45.3101 95.9755C45.3101 95.1704 45.3745 94.462 45.5033 93.8502C45.6322 93.2383 45.8415 92.6909 46.1313 92.2078C46.4211 91.7248 46.7914 91.282 47.2423 90.8795C47.7092 90.477 48.2808 90.0986 48.957 89.7444C49.8265 89.2775 50.5188 88.8991 51.0341 88.6093C51.5493 88.3194 51.9277 88.094 52.1692 87.933C52.4268 87.7559 52.5878 87.611 52.6522 87.4983C52.7327 87.3695 52.773 87.2326 52.773 87.0877C52.773 86.814 52.7086 86.5966 52.5798 86.4356C52.4671 86.2585 52.306 86.1297 52.0967 86.0492C51.8874 85.9526 51.6298 85.9043 51.3239 85.9043C51.0663 85.9043 50.8086 85.9365 50.551 86.0009C50.3095 86.0653 50.068 86.1699 49.8265 86.3149C49.585 86.4598 49.3354 86.6449 49.0778 86.8703C48.8363 87.0797 48.5867 87.3373 48.3291 87.6432L45.4309 84.2378C45.7529 83.8997 46.1474 83.5938 46.6143 83.3201C47.0974 83.0302 47.6287 82.7887 48.2083 82.5955C48.8041 82.3862 49.432 82.2252 50.0921 82.1125C50.7523 81.9998 51.4285 81.9434 52.1209 81.9434C53.3446 81.9434 54.375 82.1205 55.2123 82.4748C56.0495 82.8129 56.6855 83.304 57.1203 83.948C57.555 84.592 57.7724 85.3729 57.7724 86.2907C57.7724 86.7898 57.708 87.2407 57.5791 87.6432C57.4503 88.0296 57.2732 88.3758 57.0478 88.6817C56.8224 88.9876 56.5567 89.2694 56.2508 89.527C55.961 89.7846 55.647 90.0262 55.3089 90.2516C55.0674 90.3804 54.8098 90.5172 54.536 90.6621C54.2784 90.791 54.0128 90.9198 53.739 91.0486C53.4653 91.1774 53.1916 91.3142 52.9179 91.4591C52.6442 91.588 52.3704 91.7248 52.0967 91.8697H58.038V95.9755H45.3101Z" fill="#0B472E"/>
<path d="M75.4276 77.7703V77.7703C75.3179 77.7864 74.844 78.0472 74.7499 78.1058C74.3365 78.3629 73.5788 78.8345 72.784 79.3312C71.5977 80.0717 70.2781 80.8879 69.9763 81.0532C69.9577 81.0611 69.9394 81.0697 69.9213 81.079C68.8258 81.7462 68.5982 82.8362 68.559 83.4475C68.5563 83.4759 68.559 83.4991 68.559 83.5293C68.5555 83.6107 68.5546 83.6818 68.5547 83.7396C68.555 83.8503 68.559 83.9609 68.559 84.0715V95.1523C68.559 96.7864 70.4892 97.5724 72.3208 97.5724C72.9314 97.5724 73.5419 97.4751 74.0652 97.303C74.4141 97.1308 74.6644 96.7864 74.6644 96.442V87.4019C74.6644 85.4217 75.1005 84.4918 76.4089 83.717C76.6882 83.5791 79.0891 81.9537 80.035 81.3112C80.2895 81.1384 80.5439 80.9495 80.6701 80.669C80.7303 80.5352 80.7699 80.3936 80.7699 80.2723V80.1913C80.7699 79.8469 80.5955 79.5835 80.3338 79.4113C80.2151 79.3332 80.0785 79.2905 79.9402 79.2833C79.6056 79.2657 79.3264 79.5092 79.0488 79.6966C77.7635 80.5641 73.8706 83.1308 72.92 83.636C72.0585 84.1594 71.2408 84.381 70.7829 84.3062C70.5443 84.2672 70.3795 84.0507 70.332 83.8136C70.3172 83.7398 70.3071 83.6605 70.3034 83.5818V83.5276C70.3042 83.2934 70.3653 82.8526 70.8485 82.559C71.3387 82.2895 72.5554 81.5224 73.7382 80.7837C73.9184 80.671 74.0417 80.5945 74.1441 80.5313C74.4139 80.3646 74.7904 80.5308 75.0553 80.7052V80.7052C75.2377 80.8252 75.4592 80.8731 75.6757 80.8392C75.8923 80.8054 76.0879 80.6922 76.2238 80.5224C76.3596 80.3526 76.4257 80.1385 76.4089 79.9227V78.6313C76.4098 78.5086 76.3842 78.387 76.3337 78.2749C76.2833 78.1628 76.2091 78.0626 76.1161 77.981C76.0232 77.8995 75.9137 77.8385 75.795 77.8022C75.6762 77.7658 75.551 77.755 75.4276 77.7703ZM82.4053 80.7837V80.7837C82.2557 80.8082 81.8029 81.0919 81.6766 81.1758C80.6326 81.869 77.5499 83.9157 76.8869 84.352C76.8759 84.3593 76.8672 84.3664 76.8579 84.3759V84.3759C76.8492 84.3848 76.8399 84.3932 76.8299 84.4006C76.2075 84.8658 75.838 85.4171 75.6727 85.9219C75.5794 86.2089 75.5334 86.509 75.5367 86.8104V87.0799C75.5354 87.1066 75.5354 87.1333 75.5367 87.16V97.5724C75.5367 99.2083 77.4451 100.155 79.1895 100.155C79.9745 100.155 80.6827 99.9883 81.206 99.6439C82.1466 99.1023 86.3271 95.9063 87.165 95.2639C87.2642 95.1878 87.3671 95.1208 87.4602 95.0375C87.6372 94.8794 87.7476 94.6837 87.7476 94.4781V83.2856C87.7476 82.8551 87.5784 82.5969 87.2295 82.4247C86.9679 82.2525 86.5379 82.3334 86.2762 82.5056C84.8807 83.5388 81.1241 86.4557 80.2518 86.9723C79.0307 87.661 77.8803 87.8332 77.4442 87.4028C77.2697 87.2306 77.2811 87.0687 77.2811 86.8104C77.2863 86.6623 77.3029 86.5349 77.336 86.4333C77.3849 86.2835 77.4843 86.0993 77.8533 85.8151C77.8707 85.8014 77.862 85.8022 77.8803 85.7884C78.4321 85.4246 79.9774 84.3858 81.1978 83.5665C81.4529 83.3952 81.8139 83.5271 82.0815 83.6781V83.6781C82.2586 83.7781 82.4656 83.8136 82.6665 83.7784C82.8673 83.7433 83.0494 83.6398 83.181 83.4859C83.3125 83.332 83.3853 83.1375 83.3866 82.9361V81.6446C83.3876 81.5219 83.3619 81.4004 83.3115 81.2883C83.261 81.1761 83.1868 81.0759 83.0939 80.9944C83.0009 80.9129 82.8914 80.8519 82.7727 80.8155C82.6539 80.7792 82.5287 80.7683 82.4053 80.7837ZM84.9039 87.9207C85.3539 87.5765 86.0032 87.8974 86.0032 88.4639V88.4639C86.0032 88.6769 85.904 88.8777 85.7348 89.0071L82.7415 91.2964C82.2915 91.6406 81.6421 91.3197 81.6421 90.7532V90.7532C81.6421 90.5402 81.7414 90.3394 81.9106 90.21L84.9039 87.9207Z" fill="#0B472E"/>
<defs>
<linearGradient id="paint0_linear_563_387" x1="60" y1="0" x2="60" y2="120" gradientUnits="userSpaceOnUse">
<stop stop-color="#9DFFD6"/>
<stop offset="1" stop-color="#7CF3C1"/>
</linearGradient>
</defs>
</svg>
